<?xml version="1.0" encoding="UTF-8"?>
<!DOCTYPE svg PUBLIC "-//W3C//DTD SVG 1.1//EN" "http://www.w3.org/Graphics/SVG/1.1/DTD/svg11.dtd">
<svg xmlns="http://www.w3.org/2000/svg" version="1.1" width="512px" height="512px" style="shape-rendering:geometricPrecision; text-rendering:geometricPrecision; image-rendering:optimizeQuality; fill-rule:evenodd; clip-rule:evenodd" xmlns:xlink="http://www.w3.org/1999/xlink">
<g><path style="opacity:0.968" fill="#000101" d="M 233.5,-0.5 C 248.167,-0.5 262.833,-0.5 277.5,-0.5C 378.197,12.0418 449.697,64.3751 492,156.5C 502.398,182.348 508.898,209.015 511.5,236.5C 511.5,250.167 511.5,263.833 511.5,277.5C 500.312,371.158 453.312,440.325 370.5,485C 340.983,499.455 309.983,508.289 277.5,511.5C 262.5,511.5 247.5,511.5 232.5,511.5C 153.271,502.484 90.438,465.817 44,401.5C 18.7358,363.871 3.90244,322.538 -0.5,277.5C -0.5,261.833 -0.5,246.167 -0.5,230.5C 12.513,134.586 62.1797,65.0856 148.5,22C 175.75,9.93928 204.083,2.43928 233.5,-0.5 Z"/></g>
<g><path style="opacity:1" fill="#1a657a" d="M 239.5,16.5 C 334.489,14.4052 407.989,52.7385 460,131.5C 504.131,210.246 505.798,289.913 465,370.5C 413.399,456.23 337.232,497.397 236.5,494C 161.348,485.861 101.848,451.361 58,390.5C 17.5726,327.599 6.90595,259.932 26,187.5C 52.0047,107.495 104.838,53.9954 184.5,27C 202.537,21.3583 220.87,17.8583 239.5,16.5 Z"/></g>
<g><path style="opacity:1" fill="#050301" d="M 302.5,100.5 C 300.529,104.29 297.362,106.29 293,106.5C 269.949,101.718 246.782,101.218 223.5,105C 215.068,107.699 206.568,110.199 198,112.5C 194.858,111.687 192.358,110.02 190.5,107.5C 188.712,102.237 190.379,98.4033 195.5,96C 228.56,84.3894 262.227,82.3894 296.5,90C 300.935,92.0303 302.935,95.5303 302.5,100.5 Z"/></g>
<g><path style="opacity:1" fill="#fc911d" d="M 302.5,100.5 C 330.221,108.849 353.888,123.516 373.5,144.5C 371.537,147.518 371.037,150.851 372,154.5C 411.458,204.137 419.458,258.47 396,317.5C 387.975,335.552 376.975,351.552 363,365.5C 360.879,369.346 361.045,373.012 363.5,376.5C 358.762,380.578 353.762,384.244 348.5,387.5C 345.86,341.533 344.026,295.533 343,249.5C 360.09,237.787 367.923,221.454 366.5,200.5C 365.419,180.353 360.253,161.353 351,143.5C 333.081,124.493 313.581,122.66 292.5,138C 289.301,141.566 286.467,145.4 284,149.5C 277.49,165.874 273.657,182.874 272.5,200.5C 272.076,214.35 275.576,227.017 283,238.5C 286.747,242.918 291.08,246.584 296,249.5C 295.226,294.201 293.392,338.868 290.5,383.5C 289.688,394.404 293.022,403.737 300.5,411.5C 294.553,412.82 288.553,413.82 282.5,414.5C 280.999,409.697 277.665,407.697 272.5,408.5C 259.499,409.514 246.499,409.681 233.5,409C 230.921,410.076 229.254,411.909 228.5,414.5C 222.075,414.04 215.742,413.04 209.5,411.5C 217.363,404.091 221.029,394.924 220.5,384C 217.119,336.212 214.952,288.378 214,240.5C 222.762,232.41 230.762,223.744 238,214.5C 238.667,187.833 238.667,161.167 238,134.5C 236.839,130.174 234.005,127.841 229.5,127.5C 226.341,128.155 223.841,129.822 222,132.5C 221.667,158.167 221.333,183.833 221,209.5C 211.931,217.899 203.598,226.899 196,236.5C 198.366,285.815 200.866,335.148 203.5,384.5C 203.49,397.024 197.49,401.857 185.5,399C 180.355,395.536 178.355,390.703 179.5,384.5C 182.532,334.524 184.699,284.524 186,234.5C 178.364,225.863 170.364,217.53 162,209.5C 161.667,183.833 161.333,158.167 161,132.5C 159.27,130.598 157.437,128.931 155.5,127.5C 166.38,119.557 178.046,112.89 190.5,107.5C 192.358,110.02 194.858,111.687 198,112.5C 206.568,110.199 215.068,107.699 223.5,105C 246.782,101.218 269.949,101.718 293,106.5C 297.362,106.29 300.529,104.29 302.5,100.5 Z"/></g>
<g><path style="opacity:1" fill="#030100" d="M 155.5,127.5 C 157.437,128.931 159.27,130.598 161,132.5C 161.333,158.167 161.667,183.833 162,209.5C 170.364,217.53 178.364,225.863 186,234.5C 184.699,284.524 182.532,334.524 179.5,384.5C 178.355,390.703 180.355,395.536 185.5,399C 197.49,401.857 203.49,397.024 203.5,384.5C 200.866,335.148 198.366,285.815 196,236.5C 203.598,226.899 211.931,217.899 221,209.5C 221.333,183.833 221.667,158.167 222,132.5C 223.841,129.822 226.341,128.155 229.5,127.5C 234.005,127.841 236.839,130.174 238,134.5C 238.667,161.167 238.667,187.833 238,214.5C 230.762,223.744 222.762,232.41 214,240.5C 214.952,288.378 217.119,336.212 220.5,384C 221.029,394.924 217.363,404.091 209.5,411.5C 193.911,421.071 180.077,419.071 168,405.5C 164.856,400.235 163.023,394.569 162.5,388.5C 165.324,341.679 167.658,294.679 169.5,247.5C 170.152,246.551 170.486,245.385 170.5,244C 170.392,242.319 169.725,241.152 168.5,240.5C 160.172,233.005 152.338,225.005 145,216.5C 144.5,190.169 144.333,163.835 144.5,137.5C 145.023,130.642 148.69,127.308 155.5,127.5 Z"/></g>
<g><path style="opacity:1" fill="#070300" d="M 175.5,127.5 C 180.739,126.959 184.572,128.959 187,133.5C 187.667,157.5 187.667,181.5 187,205.5C 184.51,212.16 180.01,213.993 173.5,211C 172.107,209.829 171.273,208.329 171,206.5C 170.333,181.833 170.333,157.167 171,132.5C 172.366,130.638 173.866,128.972 175.5,127.5 Z"/></g>
<g><path style="opacity:1" fill="#070300" d="M 201.5,127.5 C 205.923,127.357 209.423,129.024 212,132.5C 212.667,157.167 212.667,181.833 212,206.5C 210.86,210.735 208.027,212.735 203.5,212.5C 199.582,211.751 197.082,209.418 196,205.5C 195.333,181.5 195.333,157.5 196,133.5C 197.36,130.977 199.193,128.977 201.5,127.5 Z"/></g>
<g><path style="opacity:1" fill="#040200" d="M 348.5,387.5 C 347.793,405.54 338.46,415.54 320.5,417.5C 313.237,417.299 306.57,415.299 300.5,411.5C 293.022,403.737 289.688,394.404 290.5,383.5C 293.392,338.868 295.226,294.201 296,249.5C 291.08,246.584 286.747,242.918 283,238.5C 275.576,227.017 272.076,214.35 272.5,200.5C 273.657,182.874 277.49,165.874 284,149.5C 286.467,145.4 289.301,141.566 292.5,138C 313.581,122.66 333.081,124.493 351,143.5C 360.253,161.353 365.419,180.353 366.5,200.5C 367.923,221.454 360.09,237.787 343,249.5C 344.026,295.533 345.86,341.533 348.5,387.5 Z"/></g>
<g><path style="opacity:1" fill="#fc911d" d="M 144.5,137.5 C 144.333,163.835 144.5,190.169 145,216.5C 152.338,225.005 160.172,233.005 168.5,240.5C 169.369,242.717 169.702,245.05 169.5,247.5C 167.658,294.679 165.324,341.679 162.5,388.5C 157.205,384.54 152.205,380.207 147.5,375.5C 148.989,371.757 148.822,368.09 147,364.5C 108.008,323.555 94.3408,275.221 106,219.5C 111.218,199.154 119.885,180.488 132,163.5C 132.751,159.595 132.251,155.929 130.5,152.5C 134.48,146.887 139.146,141.887 144.5,137.5 Z"/></g>
<g><path style="opacity:1" fill="#030301" d="M 363.5,376.5 C 361.045,373.012 360.879,369.346 363,365.5C 376.975,351.552 387.975,335.552 396,317.5C 419.458,258.47 411.458,204.137 372,154.5C 371.037,150.851 371.537,147.518 373.5,144.5C 377.898,141.592 382.064,141.925 386,145.5C 428.601,199.701 437.267,259.034 412,323.5C 403.261,343.161 391.428,360.661 376.5,376C 372.222,379.052 367.889,379.219 363.5,376.5 Z"/></g>
<g><path style="opacity:1" fill="#fa901d" d="M 313.5,144.5 C 326.776,143.047 335.942,148.38 341,160.5C 345.812,173.582 348.645,187.082 349.5,201C 350.207,213.56 346.207,224.227 337.5,233C 333.423,234.787 329.59,236.954 326,239.5C 327.08,287.683 328.914,335.85 331.5,384C 332.469,397.364 326.469,402.364 313.5,399C 308.087,395.729 306.087,390.895 307.5,384.5C 309.473,347.173 311.306,309.84 313,272.5C 313.667,261.833 313.667,251.167 313,240.5C 309.764,237.129 305.931,234.629 301.5,233C 292.29,224.213 288.29,213.38 289.5,200.5C 290.436,186.758 293.269,173.424 298,160.5C 300.85,152.844 306.017,147.511 313.5,144.5 Z"/></g>
<g><path style="opacity:1" fill="#020201" d="M 130.5,152.5 C 132.251,155.929 132.751,159.595 132,163.5C 119.885,180.488 111.218,199.154 106,219.5C 94.3408,275.221 108.008,323.555 147,364.5C 148.822,368.09 148.989,371.757 147.5,375.5C 143.298,379.201 138.964,379.368 134.5,376C 90.2116,328.55 75.7116,273.05 91,209.5C 97.0717,189.69 106.072,171.357 118,154.5C 121.737,151.36 125.904,150.693 130.5,152.5 Z"/></g>
<g><path style="opacity:1" fill="#5a340c" d="M 168.5,240.5 C 169.725,241.152 170.392,242.319 170.5,244C 170.486,245.385 170.152,246.551 169.5,247.5C 169.702,245.05 169.369,242.717 168.5,240.5 Z"/></g>
<g><path style="opacity:1" fill="#010101" d="M 282.5,414.5 C 283.469,419.732 281.469,423.232 276.5,425C 262.5,425.667 248.5,425.667 234.5,425C 229.717,423.058 227.717,419.558 228.5,414.5C 229.254,411.909 230.921,410.076 233.5,409C 246.499,409.681 259.499,409.514 272.5,408.5C 277.665,407.697 280.999,409.697 282.5,414.5 Z"/></g>
</svg>
